<mxfile host="app.diagrams.net" agent="Mozilla/5.0 (Windows NT 10.0; Win64; x64) AppleWebKit/537.36 (KHTML, like Gecko) Chrome/131.0.0.0 Safari/537.36" version="25.0.3">
  <diagram name="Page-1" id="F66A-szbmLRaUHfKmccK">
    <mxGraphModel dx="1434" dy="900" grid="1" gridSize="10" guides="1" tooltips="1" connect="1" arrows="1" fold="1" page="1" pageScale="1" pageWidth="827" pageHeight="1169" math="0" shadow="0">
      <root>
        <mxCell id="0" />
        <mxCell id="1" parent="0" />
        <mxCell id="NelPy1c94kWbyCOHuxXx-1" value="USER" style="rounded=0;whiteSpace=wrap;html=1;" vertex="1" parent="1">
          <mxGeometry x="100" y="510" width="80" height="40" as="geometry" />
        </mxCell>
        <mxCell id="NelPy1c94kWbyCOHuxXx-2" value="CONTACT" style="rounded=0;whiteSpace=wrap;html=1;" vertex="1" parent="1">
          <mxGeometry x="500" y="510" width="80" height="40" as="geometry" />
        </mxCell>
        <mxCell id="NelPy1c94kWbyCOHuxXx-3" value="&lt;u&gt;Id&lt;/u&gt;" style="ellipse;whiteSpace=wrap;html=1;" vertex="1" parent="1">
          <mxGeometry x="10" y="460" width="40" height="20" as="geometry" />
        </mxCell>
        <mxCell id="NelPy1c94kWbyCOHuxXx-4" value="Name" style="ellipse;whiteSpace=wrap;html=1;" vertex="1" parent="1">
          <mxGeometry x="40" y="410" width="40" height="20" as="geometry" />
        </mxCell>
        <mxCell id="NelPy1c94kWbyCOHuxXx-5" value="Email" style="ellipse;whiteSpace=wrap;html=1;" vertex="1" parent="1">
          <mxGeometry x="90" y="390" width="40" height="20" as="geometry" />
        </mxCell>
        <mxCell id="NelPy1c94kWbyCOHuxXx-6" value="&lt;font&gt;Password&lt;/font&gt;" style="ellipse;whiteSpace=wrap;html=1;" vertex="1" parent="1">
          <mxGeometry x="140" y="380" width="60" height="30" as="geometry" />
        </mxCell>
        <mxCell id="NelPy1c94kWbyCOHuxXx-8" value="&lt;font style=&quot;font-size: 9px;&quot;&gt;Image&lt;/font&gt;" style="ellipse;whiteSpace=wrap;html=1;" vertex="1" parent="1">
          <mxGeometry x="210" y="400" width="40" height="20" as="geometry" />
        </mxCell>
        <mxCell id="NelPy1c94kWbyCOHuxXx-9" value="&lt;font style=&quot;font-size: 9px;&quot;&gt;about&lt;/font&gt;" style="ellipse;whiteSpace=wrap;html=1;" vertex="1" parent="1">
          <mxGeometry x="220" y="460" width="40" height="20" as="geometry" />
        </mxCell>
        <mxCell id="NelPy1c94kWbyCOHuxXx-10" value="role" style="ellipse;whiteSpace=wrap;html=1;" vertex="1" parent="1">
          <mxGeometry x="10" y="510" width="40" height="20" as="geometry" />
        </mxCell>
        <mxCell id="NelPy1c94kWbyCOHuxXx-11" value="enabled" style="ellipse;whiteSpace=wrap;html=1;" vertex="1" parent="1">
          <mxGeometry x="220" y="510" width="50" height="30" as="geometry" />
        </mxCell>
        <mxCell id="NelPy1c94kWbyCOHuxXx-12" value="" style="endArrow=none;html=1;rounded=0;entryX=0.25;entryY=1;entryDx=0;entryDy=0;entryPerimeter=0;" edge="1" parent="1" target="NelPy1c94kWbyCOHuxXx-9">
          <mxGeometry width="50" height="50" relative="1" as="geometry">
            <mxPoint x="180" y="530" as="sourcePoint" />
            <mxPoint x="230" y="480" as="targetPoint" />
          </mxGeometry>
        </mxCell>
        <mxCell id="NelPy1c94kWbyCOHuxXx-13" value="" style="endArrow=none;html=1;rounded=0;exitX=1.013;exitY=0.629;exitDx=0;exitDy=0;exitPerimeter=0;entryX=0;entryY=0.5;entryDx=0;entryDy=0;" edge="1" parent="1" source="NelPy1c94kWbyCOHuxXx-1" target="NelPy1c94kWbyCOHuxXx-11">
          <mxGeometry width="50" height="50" relative="1" as="geometry">
            <mxPoint x="190" y="540" as="sourcePoint" />
            <mxPoint x="240" y="490" as="targetPoint" />
          </mxGeometry>
        </mxCell>
        <mxCell id="NelPy1c94kWbyCOHuxXx-16" value="" style="endArrow=none;html=1;rounded=0;entryX=0.304;entryY=0.9;entryDx=0;entryDy=0;entryPerimeter=0;" edge="1" parent="1" target="NelPy1c94kWbyCOHuxXx-8">
          <mxGeometry width="50" height="50" relative="1" as="geometry">
            <mxPoint x="160" y="510" as="sourcePoint" />
            <mxPoint x="210" y="460" as="targetPoint" />
          </mxGeometry>
        </mxCell>
        <mxCell id="NelPy1c94kWbyCOHuxXx-17" value="" style="endArrow=none;html=1;rounded=0;entryX=0.5;entryY=1;entryDx=0;entryDy=0;" edge="1" parent="1" target="NelPy1c94kWbyCOHuxXx-6">
          <mxGeometry width="50" height="50" relative="1" as="geometry">
            <mxPoint x="140.5" y="510" as="sourcePoint" />
            <mxPoint x="199.5" y="421" as="targetPoint" />
          </mxGeometry>
        </mxCell>
        <mxCell id="NelPy1c94kWbyCOHuxXx-18" value="" style="endArrow=none;html=1;rounded=0;entryX=0.5;entryY=1;entryDx=0;entryDy=0;" edge="1" parent="1" target="NelPy1c94kWbyCOHuxXx-5">
          <mxGeometry width="50" height="50" relative="1" as="geometry">
            <mxPoint x="116.5" y="510" as="sourcePoint" />
            <mxPoint x="140" y="413" as="targetPoint" />
          </mxGeometry>
        </mxCell>
        <mxCell id="NelPy1c94kWbyCOHuxXx-19" value="" style="endArrow=none;html=1;rounded=0;exitX=1;exitY=1;exitDx=0;exitDy=0;" edge="1" parent="1" source="NelPy1c94kWbyCOHuxXx-10">
          <mxGeometry width="50" height="50" relative="1" as="geometry">
            <mxPoint x="50" y="580" as="sourcePoint" />
            <mxPoint x="100" y="530" as="targetPoint" />
          </mxGeometry>
        </mxCell>
        <mxCell id="NelPy1c94kWbyCOHuxXx-20" value="" style="endArrow=none;html=1;rounded=0;" edge="1" parent="1" source="NelPy1c94kWbyCOHuxXx-3">
          <mxGeometry width="50" height="50" relative="1" as="geometry">
            <mxPoint x="50" y="570" as="sourcePoint" />
            <mxPoint x="100" y="520" as="targetPoint" />
          </mxGeometry>
        </mxCell>
        <mxCell id="NelPy1c94kWbyCOHuxXx-21" value="" style="endArrow=none;html=1;rounded=0;exitX=0.5;exitY=1;exitDx=0;exitDy=0;" edge="1" parent="1" source="NelPy1c94kWbyCOHuxXx-4">
          <mxGeometry width="50" height="50" relative="1" as="geometry">
            <mxPoint x="60" y="560" as="sourcePoint" />
            <mxPoint x="110" y="510" as="targetPoint" />
          </mxGeometry>
        </mxCell>
        <mxCell id="NelPy1c94kWbyCOHuxXx-22" value="Name" style="ellipse;whiteSpace=wrap;html=1;" vertex="1" parent="1">
          <mxGeometry x="460" y="410" width="40" height="20" as="geometry" />
        </mxCell>
        <mxCell id="NelPy1c94kWbyCOHuxXx-23" value="&lt;u&gt;cid&lt;/u&gt;" style="ellipse;whiteSpace=wrap;html=1;" vertex="1" parent="1">
          <mxGeometry x="414" y="450" width="40" height="20" as="geometry" />
        </mxCell>
        <mxCell id="NelPy1c94kWbyCOHuxXx-24" value="&lt;font style=&quot;font-size: 9px;&quot;&gt;about&lt;/font&gt;" style="ellipse;whiteSpace=wrap;html=1;" vertex="1" parent="1">
          <mxGeometry x="394" y="490" width="40" height="20" as="geometry" />
        </mxCell>
        <mxCell id="NelPy1c94kWbyCOHuxXx-25" value="phone" style="ellipse;whiteSpace=wrap;html=1;" vertex="1" parent="1">
          <mxGeometry x="400" y="540" width="40" height="20" as="geometry" />
        </mxCell>
        <mxCell id="NelPy1c94kWbyCOHuxXx-26" value="Email" style="ellipse;whiteSpace=wrap;html=1;" vertex="1" parent="1">
          <mxGeometry x="610" y="420" width="40" height="20" as="geometry" />
        </mxCell>
        <mxCell id="NelPy1c94kWbyCOHuxXx-27" value="&lt;font&gt;nickname&lt;/font&gt;" style="ellipse;whiteSpace=wrap;html=1;" vertex="1" parent="1">
          <mxGeometry x="530" y="405" width="60" height="30" as="geometry" />
        </mxCell>
        <mxCell id="NelPy1c94kWbyCOHuxXx-28" value="work" style="ellipse;whiteSpace=wrap;html=1;" vertex="1" parent="1">
          <mxGeometry x="650" y="460" width="40" height="20" as="geometry" />
        </mxCell>
        <mxCell id="NelPy1c94kWbyCOHuxXx-29" value="&lt;font style=&quot;font-size: 9px;&quot;&gt;Image&lt;/font&gt;" style="ellipse;whiteSpace=wrap;html=1;" vertex="1" parent="1">
          <mxGeometry x="650" y="520" width="40" height="20" as="geometry" />
        </mxCell>
        <mxCell id="NelPy1c94kWbyCOHuxXx-30" value="" style="endArrow=none;html=1;rounded=0;entryX=0;entryY=1;entryDx=0;entryDy=0;" edge="1" parent="1" target="NelPy1c94kWbyCOHuxXx-26">
          <mxGeometry width="50" height="50" relative="1" as="geometry">
            <mxPoint x="570" y="510" as="sourcePoint" />
            <mxPoint x="620" y="460" as="targetPoint" />
          </mxGeometry>
        </mxCell>
        <mxCell id="NelPy1c94kWbyCOHuxXx-31" value="" style="endArrow=none;html=1;rounded=0;entryX=0;entryY=0.5;entryDx=0;entryDy=0;" edge="1" parent="1" target="NelPy1c94kWbyCOHuxXx-28">
          <mxGeometry width="50" height="50" relative="1" as="geometry">
            <mxPoint x="580" y="520" as="sourcePoint" />
            <mxPoint x="626" y="447" as="targetPoint" />
          </mxGeometry>
        </mxCell>
        <mxCell id="NelPy1c94kWbyCOHuxXx-32" value="" style="endArrow=none;html=1;rounded=0;entryX=0;entryY=0.5;entryDx=0;entryDy=0;" edge="1" parent="1" target="NelPy1c94kWbyCOHuxXx-29">
          <mxGeometry width="50" height="50" relative="1" as="geometry">
            <mxPoint x="580" y="530" as="sourcePoint" />
            <mxPoint x="650" y="480" as="targetPoint" />
          </mxGeometry>
        </mxCell>
        <mxCell id="NelPy1c94kWbyCOHuxXx-33" value="" style="endArrow=none;html=1;rounded=0;entryX=0;entryY=0.5;entryDx=0;entryDy=0;exitX=1;exitY=0.5;exitDx=0;exitDy=0;" edge="1" parent="1" source="NelPy1c94kWbyCOHuxXx-25">
          <mxGeometry width="50" height="50" relative="1" as="geometry">
            <mxPoint x="430" y="539.43" as="sourcePoint" />
            <mxPoint x="500" y="539.43" as="targetPoint" />
          </mxGeometry>
        </mxCell>
        <mxCell id="NelPy1c94kWbyCOHuxXx-34" value="" style="endArrow=none;html=1;rounded=0;entryX=0;entryY=0.5;entryDx=0;entryDy=0;exitX=1;exitY=1;exitDx=0;exitDy=0;" edge="1" parent="1" source="NelPy1c94kWbyCOHuxXx-24">
          <mxGeometry width="50" height="50" relative="1" as="geometry">
            <mxPoint x="440" y="535.29" as="sourcePoint" />
            <mxPoint x="500" y="524.7199999999999" as="targetPoint" />
          </mxGeometry>
        </mxCell>
        <mxCell id="NelPy1c94kWbyCOHuxXx-35" value="" style="endArrow=none;html=1;rounded=0;entryX=0;entryY=0.5;entryDx=0;entryDy=0;exitX=0.704;exitY=0.971;exitDx=0;exitDy=0;exitPerimeter=0;" edge="1" parent="1" source="NelPy1c94kWbyCOHuxXx-23">
          <mxGeometry width="50" height="50" relative="1" as="geometry">
            <mxPoint x="434" y="492.28" as="sourcePoint" />
            <mxPoint x="506" y="509.9999999999999" as="targetPoint" />
          </mxGeometry>
        </mxCell>
        <mxCell id="NelPy1c94kWbyCOHuxXx-36" value="" style="endArrow=none;html=1;rounded=0;entryX=0;entryY=0.5;entryDx=0;entryDy=0;exitX=0.5;exitY=1;exitDx=0;exitDy=0;" edge="1" parent="1" source="NelPy1c94kWbyCOHuxXx-22">
          <mxGeometry width="50" height="50" relative="1" as="geometry">
            <mxPoint x="466" y="469" as="sourcePoint" />
            <mxPoint x="530" y="509.9999999999999" as="targetPoint" />
          </mxGeometry>
        </mxCell>
        <mxCell id="NelPy1c94kWbyCOHuxXx-37" value="" style="endArrow=none;html=1;rounded=0;entryX=0.5;entryY=0;entryDx=0;entryDy=0;exitX=0.5;exitY=1;exitDx=0;exitDy=0;" edge="1" parent="1" source="NelPy1c94kWbyCOHuxXx-27" target="NelPy1c94kWbyCOHuxXx-2">
          <mxGeometry width="50" height="50" relative="1" as="geometry">
            <mxPoint x="490" y="440" as="sourcePoint" />
            <mxPoint x="540" y="519.9999999999999" as="targetPoint" />
          </mxGeometry>
        </mxCell>
        <mxCell id="NelPy1c94kWbyCOHuxXx-39" style="edgeStyle=orthogonalEdgeStyle;rounded=0;orthogonalLoop=1;jettySize=auto;html=1;exitX=1;exitY=0.5;exitDx=0;exitDy=0;entryX=0.5;entryY=1;entryDx=0;entryDy=0;" edge="1" parent="1" source="NelPy1c94kWbyCOHuxXx-38" target="NelPy1c94kWbyCOHuxXx-2">
          <mxGeometry relative="1" as="geometry" />
        </mxCell>
        <mxCell id="NelPy1c94kWbyCOHuxXx-40" style="edgeStyle=orthogonalEdgeStyle;rounded=0;orthogonalLoop=1;jettySize=auto;html=1;exitX=0;exitY=0.5;exitDx=0;exitDy=0;entryX=0.5;entryY=1;entryDx=0;entryDy=0;" edge="1" parent="1" source="NelPy1c94kWbyCOHuxXx-38" target="NelPy1c94kWbyCOHuxXx-1">
          <mxGeometry relative="1" as="geometry" />
        </mxCell>
        <mxCell id="NelPy1c94kWbyCOHuxXx-38" value="has" style="rhombus;whiteSpace=wrap;html=1;" vertex="1" parent="1">
          <mxGeometry x="290" y="620" width="70" height="60" as="geometry" />
        </mxCell>
        <mxCell id="NelPy1c94kWbyCOHuxXx-41" value="&lt;b&gt;1&lt;/b&gt;" style="text;html=1;align=center;verticalAlign=middle;whiteSpace=wrap;rounded=0;" vertex="1" parent="1">
          <mxGeometry x="200" y="620" width="60" height="30" as="geometry" />
        </mxCell>
        <mxCell id="NelPy1c94kWbyCOHuxXx-42" value="&lt;b&gt;N&lt;/b&gt;" style="text;html=1;align=center;verticalAlign=middle;whiteSpace=wrap;rounded=0;" vertex="1" parent="1">
          <mxGeometry x="434" y="620" width="60" height="30" as="geometry" />
        </mxCell>
      </root>
    </mxGraphModel>
  </diagram>
</mxfile>
